<svg id="Layer_1" data-name="Layer 1" xmlns="http://www.w3.org/2000/svg" viewBox="0 0 512 512"><defs><style>.cls-1{fill:#c0ccdd;}.cls-2{fill:#dae2f2;}.cls-3{fill:#f7818f;}.cls-4{opacity:0.06;}</style></defs><title>megaphone-flat</title><path class="cls-1" d="M143.54,301.94H77.76l14.14,99a32.82,32.82,0,0,0,65.63-.49Z"/><path class="cls-2" d="M341.33,229.73v.07a402.44,402.44,0,0,1-22.71,133.91,25.62,25.62,0,0,1-17.72,16.34,26.42,26.42,0,0,1-6.37.79,25.54,25.54,0,0,1-17.07-6.5c-41.09-36.37-90.65-57.44-139.62-59.27h-.26l-6.3-.26V144.66l6.3-.26h.26c49.1-1.84,98.59-22.84,139.62-59.14A25.58,25.58,0,0,1,318.62,96,402,402,0,0,1,341.33,229.73Z"/><path class="cls-3" d="M144.41,144.4V315.07H72.21A72.21,72.21,0,0,1,0,242.86V216.61A72.21,72.21,0,0,1,72.21,144.4Z"/><path class="cls-1" d="M463.68,367.58a6.57,6.57,0,0,1-5.24-10.5c26.46-35.28,40.44-77.73,40.44-122.77,0-48.48-16.82-95.23-47.37-131.63a6.56,6.56,0,1,1,10.05-8.44C494.09,133,512,182.74,512,234.31c0,47.91-14.89,93.08-43.06,130.65A6.55,6.55,0,0,1,463.68,367.58Z"/><path class="cls-1" d="M425.28,328.2a6.56,6.56,0,0,1-5.37-10.33,149.2,149.2,0,0,0-4.65-176,6.57,6.57,0,0,1,10.33-8.1,162.33,162.33,0,0,1,5.07,191.61A6.55,6.55,0,0,1,425.28,328.2Z"/><path class="cls-1" d="M386.55,288.81a6.56,6.56,0,0,1-5.62-9.95,92,92,0,0,0-2.51-98,6.57,6.57,0,0,1,10.9-7.33,105.1,105.1,0,0,1,2.86,112.07A6.56,6.56,0,0,1,386.55,288.81Z"/><g class="cls-4"><path d="M341.33,229.73v.07a402.44,402.44,0,0,1-22.71,133.91,25.62,25.62,0,0,1-17.72,16.34,26.42,26.42,0,0,1-6.37.79,25.54,25.54,0,0,1-17.07-6.5c-41.09-36.37-90.65-57.44-139.62-59.27H72.21A72.25,72.25,0,0,1,0,242.86V229.73Z"/></g></svg>